<svg width="49" height="49" viewBox="0 0 49 49" fill="none" xmlns="http://www.w3.org/2000/svg">
<g filter="url(#filter0_d)">
<path d="M24.5 1.5375C34.955 1.5375 43.4625 10.045 43.4625 20.5C43.4625 30.955 34.955 39.4625 24.5 39.4625C14.045 39.4625 5.5375 30.955 5.5375 20.5C5.5375 10.045 14.045 1.5375 24.5 1.5375ZM24.5 0C13.1737 0 4 9.17375 4 20.5C4 31.8263 13.1737 41 24.5 41C35.8263 41 45 31.8263 45 20.5C45 9.17375 35.8263 0 24.5 0Z" fill="white"/>
<path d="M21.7831 27.0086L31.5206 21.3711C31.8281 21.1661 32.0331 20.8586 32.0331 20.4999C32.0331 20.1411 31.8281 19.7824 31.5206 19.6286L21.7831 13.9911C21.4756 13.7861 21.0656 13.7861 20.7581 13.9911C20.4506 14.1961 20.2456 14.5036 20.2456 14.8624V26.1374C20.2456 26.4961 20.4506 26.8549 20.7581 27.0086C21.0656 27.1624 21.4244 27.2136 21.7831 27.0086Z" fill="white"/>
</g>
<defs>
<filter id="filter0_d" x="0" y="0" width="49" height="49" filterUnits="userSpaceOnUse" color-interpolation-filters="sRGB">
<feFlood flood-opacity="0" result="BackgroundImageFix"/>
<feColorMatrix in="SourceAlpha" type="matrix" values="0 0 0 0 0 0 0 0 0 0 0 0 0 0 0 0 0 0 127 0"/>
<feOffset dy="4"/>
<feGaussianBlur stdDeviation="2"/>
<feColorMatrix type="matrix" values="0 0 0 0 0 0 0 0 0 0 0 0 0 0 0 0 0 0 0.25 0"/>
<feBlend mode="normal" in2="BackgroundImageFix" result="effect1_dropShadow"/>
<feBlend mode="normal" in="SourceGraphic" in2="effect1_dropShadow" result="shape"/>
</filter>
</defs>
</svg>
